{
    "asset" : {
        "generator" : "Khronos glTF Blender I/O v1.7.5",
        "version" : "2.0"
    },
    "scene" : 0,
    "scenes" : [
        {
            "name" : "Scene",
            "nodes" : [
                0
            ]
        }
    ],
    "nodes" : [
        {
            "mesh" : 0,
            "name" : "Object_1",
            "scale" : [
                44.35550308227539,
                44.35550308227539,
                44.35550308227539
            ],
            "translation" : [
                4.711925983428955,
                4.341056823730469,
                -0.00965006835758686
            ]
        }
    ],
    "materials" : [
        {
            "doubleSided" : true,
            "name" : "Material_2",
            "pbrMetallicRoughness" : {
                "baseColorFactor" : [
                    0,
                    0,
                    0,
                    1
                ],
                "roughnessFactor" : 0
            }
        },
        {
            "doubleSided" : true,
            "name" : "Material",
            "pbrMetallicRoughness" : {
                "baseColorFactor" : [
                    0.012890749610960484,
                    0.5308253169059753,
                    0.8000000715255737,
                    1
                ],
                "metallicFactor" : 0.6594203114509583,
                "roughnessFactor" : 0.34057968854904175
            }
        },
        {
            "doubleSided" : true,
            "name" : "Material.001",
            "pbrMetallicRoughness" : {
                "baseColorFactor" : [
                    0.800000011920929,
                    0.800000011920929,
                    0.800000011920929,
                    1
                ],
                "metallicFactor" : 0,
                "roughnessFactor" : 0.5
            }
        },
        {
            "doubleSided" : true,
            "name" : "Material.002",
            "pbrMetallicRoughness" : {
                "baseColorFactor" : [
                    0.16794893145561218,
                    0.16794893145561218,
                    0.16794893145561218,
                    1
                ],
                "roughnessFactor" : 0.5
            }
        }
    ],
    "meshes" : [
        {
            "name" : "Object_1",
            "primitives" : [
                {
                    "attributes" : {
                        "POSITION" : 0,
                        "NORMAL" : 1,
                        "TEXCOORD_0" : 2
                    },
                    "indices" : 3,
                    "material" : 0
                },
                {
                    "attributes" : {
                        "POSITION" : 4,
                        "NORMAL" : 5,
                        "TEXCOORD_0" : 6
                    },
                    "indices" : 7,
                    "material" : 1
                },
                {
                    "attributes" : {
                        "POSITION" : 8,
                        "NORMAL" : 9,
                        "TEXCOORD_0" : 10
                    },
                    "indices" : 11,
                    "material" : 2
                },
                {
                    "attributes" : {
                        "POSITION" : 12,
                        "NORMAL" : 13,
                        "TEXCOORD_0" : 14
                    },
                    "indices" : 15,
                    "material" : 3
                }
            ]
        }
    ],
    "accessors" : [
        {
            "bufferView" : 0,
            "componentType" : 5126,
            "count" : 12757,
            "max" : [
                0.4799051582813263,
                0.3619566261768341,
                0.23029404878616333
            ],
            "min" : [
                -0.5147343873977661,
                -0.19860616326332092,
                -0.22970595955848694
            ],
            "type" : "VEC3"
        },
        {
            "bufferView" : 1,
            "componentType" : 5126,
            "count" : 12757,
            "type" : "VEC3"
        },
        {
            "bufferView" : 2,
            "componentType" : 5126,
            "count" : 12757,
            "type" : "VEC2"
        },
        {
            "bufferView" : 3,
            "componentType" : 5123,
            "count" : 49116,
            "type" : "SCALAR"
        },
        {
            "bufferView" : 4,
            "componentType" : 5126,
            "count" : 9417,
            "max" : [
                0.4975832402706146,
                0.23848918080329895,
                0.24029496312141418
            ],
            "min" : [
                -0.502416729927063,
                -0.08201083540916443,
                -0.2397068738937378
            ],
            "type" : "VEC3"
        },
        {
            "bufferView" : 5,
            "componentType" : 5126,
            "count" : 9417,
            "type" : "VEC3"
        },
        {
            "bufferView" : 6,
            "componentType" : 5126,
            "count" : 9417,
            "type" : "VEC2"
        },
        {
            "bufferView" : 7,
            "componentType" : 5123,
            "count" : 24282,
            "type" : "SCALAR"
        },
        {
            "bufferView" : 8,
            "componentType" : 5126,
            "count" : 5821,
            "max" : [
                0.48439064621925354,
                -0.05151084065437317,
                0.2522556483745575
            ],
            "min" : [
                -0.41451114416122437,
                -0.2515108287334442,
                -0.2516675293445587
            ],
            "type" : "VEC3"
        },
        {
            "bufferView" : 9,
            "componentType" : 5126,
            "count" : 5821,
            "type" : "VEC3"
        },
        {
            "bufferView" : 10,
            "componentType" : 5126,
            "count" : 5821,
            "type" : "VEC2"
        },
        {
            "bufferView" : 11,
            "componentType" : 5123,
            "count" : 25671,
            "type" : "SCALAR"
        },
        {
            "bufferView" : 12,
            "componentType" : 5126,
            "count" : 3107,
            "max" : [
                -0.016145780682563782,
                0.12698909640312195,
                0.24029403924942017
            ],
            "min" : [
                -0.524734377861023,
                0.11098918318748474,
                -0.23970595002174377
            ],
            "type" : "VEC3"
        },
        {
            "bufferView" : 13,
            "componentType" : 5126,
            "count" : 3107,
            "type" : "VEC3"
        },
        {
            "bufferView" : 14,
            "componentType" : 5126,
            "count" : 3107,
            "type" : "VEC2"
        },
        {
            "bufferView" : 15,
            "componentType" : 5123,
            "count" : 7191,
            "type" : "SCALAR"
        }
    ],
    "bufferViews" : [
        {
            "buffer" : 0,
            "byteLength" : 153084,
            "byteOffset" : 0
        },
        {
            "buffer" : 0,
            "byteLength" : 153084,
            "byteOffset" : 153084
        },
        {
            "buffer" : 0,
            "byteLength" : 102056,
            "byteOffset" : 306168
        },
        {
            "buffer" : 0,
            "byteLength" : 98232,
            "byteOffset" : 408224
        },
        {
            "buffer" : 0,
            "byteLength" : 113004,
            "byteOffset" : 506456
        },
        {
            "buffer" : 0,
            "byteLength" : 113004,
            "byteOffset" : 619460
        },
        {
            "buffer" : 0,
            "byteLength" : 75336,
            "byteOffset" : 732464
        },
        {
            "buffer" : 0,
            "byteLength" : 48564,
            "byteOffset" : 807800
        },
        {
            "buffer" : 0,
            "byteLength" : 69852,
            "byteOffset" : 856364
        },
        {
            "buffer" : 0,
            "byteLength" : 69852,
            "byteOffset" : 926216
        },
        {
            "buffer" : 0,
            "byteLength" : 46568,
            "byteOffset" : 996068
        },
        {
            "buffer" : 0,
            "byteLength" : 51342,
            "byteOffset" : 1042636
        },
        {
            "buffer" : 0,
            "byteLength" : 37284,
            "byteOffset" : 1093980
        },
        {
            "buffer" : 0,
            "byteLength" : 37284,
            "byteOffset" : 1131264
        },
        {
            "buffer" : 0,
            "byteLength" : 24856,
            "byteOffset" : 1168548
        },
        {
            "buffer" : 0,
            "byteLength" : 14382,
            "byteOffset" : 1193404
        }
    ],
    "buffers" : [
        {
            "byteLength" : 1207788,
            "uri" : "data:application/octet-stream;base64,"
        }
    ]
}
